# xmcd CD database file
#
# Track frame offsets:
#	150
#	20520
#	57385
#	79695
#	107787
#	126580
#	145900
#	171820
#	187387
#
# Disc length: 2889 seconds
#
# Revision: 0
# Processed by: cddbd v1.5PL3 Copyright (c) Steve Scherf et al.
# Submitted via: CDex 1.51
#
DISCID=850b4709
DTITLE=Don Shirley - Piano Perspectives
DYEAR=1955
DGENRE=Jazz
TTITLE0=Someone to Watch Over Me
TTITLE1=Love for Sale
TTITLE2=Blue Moon
TTITLE3=How Hight The Moon
TTITLE4=I Can't Get Started With You
TTITLE5=I Can't Give You Anything But Love
TTITLE6=I Let a Song go Out of my Heart
TTITLE7=Makin' Whoopee
TTITLE8=Lullaby of Birdland
EXTD=YEAR: 1955
EXTT0=
EXTT1=
EXTT2=
EXTT3=
EXTT4=
EXTT5=
EXTT6=
EXTT7=
EXTT8=
PLAYORDER=
